<?xml version="1.0" encoding="UTF-8" standalone="no"?>
<svg
   xmlns:dc="http://purl.org/dc/elements/1.1/"
   xmlns:cc="http://creativecommons.org/ns#"
   xmlns:rdf="http://www.w3.org/1999/02/22-rdf-syntax-ns#"
   xmlns:svg="http://www.w3.org/2000/svg"
   xmlns="http://www.w3.org/2000/svg"
   viewBox="0 0 1024.24 815.98669"
   height="815.98669"
   width="1024.24"
   xml:space="preserve"
   id="svg2"
   version="1.1"><metadata
     id="metadata8"><rdf:RDF><cc:Work
         rdf:about=""><dc:format>image/svg+xml</dc:format><dc:type
           rdf:resource="http://purl.org/dc/dcmitype/StillImage" /></cc:Work></rdf:RDF></metadata><defs
     id="defs6" /><g
     transform="matrix(1.3333333,0,0,-1.3333333,0,815.98667)"
     id="g10"><g
       transform="scale(0.1)"
       id="g12"><path
         id="path14"
         style="fill:none;stroke:#e1134c;stroke-width:524.17602539;stroke-linecap:butt;stroke-linejoin:miter;stroke-miterlimit:10;stroke-dasharray:none;stroke-opacity:1"
         d="m 4788.4,1799.56 c 14.55,17.58 29.03,35.28 43.44,53.12 C 5957.13,3246.25 6200,4916.46 5374.3,5583.22 4548.59,6249.96 2966.99,5660.77 1841.7,4267.21" /><path
         id="path16"
         style="fill:none;stroke:#5a83cb;stroke-width:524.17602539;stroke-linecap:butt;stroke-linejoin:miter;stroke-miterlimit:10;stroke-dasharray:none;stroke-opacity:1"
         d="M 1766.62,4172.13 C 705.953,2798.51 492.234,1188.33 1299.24,536.68 2114.37,-121.531 3666.17,444.25 4788.4,1799.56" /><path
         id="path18"
         style="fill:none;stroke:#e1134c;stroke-width:499.21499634;stroke-linecap:butt;stroke-linejoin:miter;stroke-miterlimit:10;stroke-dasharray:none;stroke-opacity:1"
         d="m 1841.7,4267.21 c -25.48,-31.56 -50.51,-63.26 -75.08,-95.08" /><path
         id="path20"
         style="fill:#100f0d;fill-opacity:1;fill-rule:nonzero;stroke:none"
         d="m 5812.94,2860.59 h -83.52 c -170.35,0 -190.42,-27.44 -237.18,-204.16 L 5047.95,1215.14 c -10.02,-30.5 -16.72,-60.97 -16.72,-85.36 0,-94.45 106.89,-103.59 213.8,-103.59 h 90.22 L 5291.8,925.629 H 3983.91 l 53.66,101.791 c 283.95,0 246.63,97.88 299.53,199.69 L 4686.55,2325.38 3638.2,927.582 H 3488.43 V 2375.3 l -501.7,-1102.29 c -36.74,-60.93 -53.43,-112.73 -53.43,-146.25 0,-91.43 120.27,-100.57 227.17,-100.57 h 80.17 l -40.1,-100.561 h -885.26 l 40.06,100.561 c 193.77,0 267.11,44.46 330.25,156.39 l 791.04,1534.79 c 3.35,21.33 6.7,39.6 6.7,54.85 0,79.23 -4.39,82.26 -268.32,82.26 l 54.54,135.15 942.74,9.69 -24.96,-973.47 748.82,948.5 923.56,-10.17 -46.77,-103.59" /><path
         id="path22"
         style="fill:#100f0d;fill-opacity:1;fill-rule:nonzero;stroke:none"
         d="M 2811.22,5349.2 H 2701 c -164.71,-3.57 -164.71,-103.41 -221.77,-240.69 L 1934.73,3648.3 C 1767.5,3292.39 1387.86,2799.63 676.934,2699.78 c -239.465,-33.62 -454.668,-34.24 -601.559,99.85 -164.0625,149.76 -54.6875,549.14 273.434,549.14 379.246,0 382.812,-249.61 273.437,-349.45 -49.094,-44.82 -51.426,-88.11 0,-99.85 218.746,-49.92 638.714,758.88 710.934,948.51 l 527.85,1279.5 c 73.7,218.15 -90.36,218.15 -254.42,218.15 l 26.4,99.84 h 1231.4 l -53.19,-96.27" /><path
         id="path24"
         style="fill:#100f0d;fill-opacity:1;fill-rule:nonzero;stroke:none"
         d="m 3470.81,4778.55 c -230.38,31.8 -442.95,-678.88 -481.73,-944.43 -22.07,-151.14 -24.85,-368.8 78.95,-383.13 234.63,-32.39 437.43,670.85 478.1,949.35 22.71,155.45 38.43,362.51 -75.32,378.21 z M 2982.78,3199 c -445.86,0 -695.11,326.11 -667.45,648.91 51.34,598.99 614.98,1148.06 1180.87,1148.06 359.39,0 564.76,-99.83 667.44,-349.41 C 4315.44,4277.6 4135.35,3525.61 3290.83,3248.92 3209.09,3222.14 3136.8,3199 2982.78,3199" /><path
         id="path26"
         style="fill:#100f0d;fill-opacity:1;fill-rule:nonzero;stroke:none"
         d="m 5660.02,2350.34 71.08,124.81 h 865.26 l -12.8,-149.77 c 0,0 -74.88,24.96 -124.8,-124.8 -9.07,-27.24 -167.07,-443.58 -266.65,-773.79 -82.79,-274.56 266.65,-274.56 366.49,-74.89 94.29,188.57 230.49,503.03 313.55,733.7 60.03,166.74 135.75,264.74 85.83,264.74 -50.53,0 -145.98,0 -199.69,0 l 40.19,124.81 h 883.37 v -149.77 c 0,0 -70.39,9.35 -99.85,-49.92 -124.83,-251.09 -424.33,-1073.31 -424.33,-1073.31 0,-49.92 199.68,-49.92 199.68,-49.92 V 1102.3 L 6508.68,902.621 v 99.839 c 0,0 99.84,149.77 0,99.84 -35.77,-17.89 -175.54,-135.249 -399.36,-199.679 -260.59,-75.019 -574.11,-39.851 -574.11,224.639 0,99.85 17.54,214.98 50.53,299.53 224.04,574.1 303.19,798.75 303.19,798.75 0,0 70.62,124.8 -79.15,124.8 -20.82,0 -73.73,0 -99.84,0 -39.55,0 -49.92,0 -49.92,0" /></g></g></svg>